<svg xmlns="http://www.w3.org/2000/svg" width="151.656" height="50" viewBox="0 0 151.656 50">
  <defs>
    <style>
      .cls-1 {
        fill: #f09006;
        fill-rule: evenodd;
      }
    </style>
  </defs>
  <g id="Header" transform="translate(0 0)">
    <g id="Group_2" data-name="Group 2">
      <path id="Path_1" data-name="Path 1" class="cls-1" d="M138.593,23.154a5.133,5.133,0,0,0-5.256-5.21c-.32,0-.914.548-.914.823.137,2.651.366,5.256.64,7.907a.828.828,0,0,0,.777.731c2.057-.046,5.027-2.011,4.753-4.25ZM134.023,37.6c.137,2.422.32,4.89.411,7.312.046,1.051-.046,2.148-.091,3.2-.091,1.28-.686,2.148-2.057,2.194-3.062.091-6.078.091-9.141.091-1.1,0-1.645-.548-1.645-1.737.046-10.146,0-20.292.046-30.438,0-1.965.137-3.885.183-5.85a2.122,2.122,0,0,1,2.011-2.285,11.481,11.481,0,0,1,1.234-.183c4.387.091,8.775-.046,13.117.32,4.25.366,8.044,2.148,10.237,6.033,2.468,4.342,3.245,11.243-1.6,14.762-.96.686-2.057,1.28-3.2,2.011.731.731,1.463,1.463,2.1,2.239a30.39,30.39,0,0,1,6.261,12.477c.457,1.92.183,2.422-1.782,2.559-2.971.183-5.9.274-8.866.183-2.057-.046-2.377-.548-2.651-2.514a22.351,22.351,0,0,0-3.428-9.369,8.41,8.41,0,0,0-.777-1.005c-.183-.091-.183-.091-.366,0Z" transform="translate(-65.97 -5.374)"/>
      <path id="Path_2" data-name="Path 2" class="cls-1" d="M17.183,36.7c1.691-.32,3.154-.594,4.57-.823a16.767,16.767,0,0,1,3.016-.229,1.509,1.509,0,0,1,1.005.96c.366,4.25.594,8.546.868,12.8.046.914-.229,1.462-1.28,1.554a151.4,151.4,0,0,1-23.217.411,9.15,9.15,0,0,1-1.1-.183c-1.005-.229-1.28-.731-.868-1.737C1.553,46.074,2.787,42.6,4.249,39.264c2.468-5.484,5.073-10.923,7.632-16.407a5.764,5.764,0,0,0,.229-1.28,5.989,5.989,0,0,0-1.28,0c-2.7.5-5.347,1.1-8.044,1.6-1.554.274-1.92.046-2.057-1.554C.5,18.378.41,15.133.273,11.888c-.046-1.554,1.371-1.325,2.1-1.371,7.221-.137,14.488-.183,21.709-.137,3.336,0,3.519.32,2.285,3.382-2.879,7.13-5.8,14.259-8.684,21.343-.183.411-.274.868-.5,1.6" transform="translate(0.002 -5.626)"/>
      <path id="Path_3" data-name="Path 3" class="cls-1" d="M213.585,24.786h-.32l-1.508,7.678c-.548,2.742-.229,3.062,2.514,2.559.96-.183,1.234-.64,1.051-1.554l-.548-2.742c-.366-1.92-.777-3.93-1.188-5.941Zm10.877,26.462c-1.463-.091-2.925-.137-4.342-.229a1.388,1.388,0,0,1-1.417-1.234c-.686-3.245-1.508-6.444-2.239-9.643A1.417,1.417,0,0,0,215,38.817c-4.525-.411-4.57-.32-5.439,4.113-.457,2.331-1.005,4.662-1.645,6.947a2.012,2.012,0,0,1-1.28,1.234c-2.7.183-5.439.183-8.135.229a1.017,1.017,0,0,1-1.051-1.325c1.417-5.164,2.742-10.329,4.2-15.493,1.919-6.718,3.93-13.391,5.941-20.109.32-1.005.64-2.057,1.051-3.016a1.558,1.558,0,0,1,1.143-.777c2.605-.091,5.256-.091,7.861,0,.366,0,.868.594,1.005,1.005,1.645,5.439,3.336,10.832,4.845,16.316,1.965,6.993,3.839,14.031,5.713,21.023.594,2.148.411,2.285-1.874,2.331h-2.971c.091-.091.091-.091.091-.046Z" transform="translate(-107.188 -5.727)"/>
      <path id="Path_4" data-name="Path 4" class="cls-1" d="M291.6,31.463c.228,1.462.411,2.651.594,3.839.594,4.479,1.188,8.958,1.828,13.437.228,1.554-.548,1.782-2.468,1.828-3.382.091-6.581.091-10.329-.046-1.828-.046-1.508-1.005-1.554-1.828-.137-3.108-.274-6.216-.274-9.323,0-8.912.046-17.778.091-26.691,0-2.514.274-2.834,2.788-2.834,6.535-.046,13.025,0,19.561-.046,1.188,0,1.6.5,1.508,1.554-.183,2.834-.366,5.621-.548,8.455-.091,1.28-1.006,1.28-1.965,1.1-2.879-.5-5.713-1.051-8.592-1.554-.823-.137-1.6-.274-2.742-.457.366,2.148.686,3.976,1.051,5.8.046.229.64.411,1.005.411,1.143,0,2.331-.137,3.428-.046a1.712,1.712,0,0,1,1.188.96,17.042,17.042,0,0,1,.274,3.748c-.046,1.6-.685,2.1-2.285,1.965a21.411,21.411,0,0,1-2.559-.274" transform="translate(-151.705 -5.32)"/>
      <path id="Path_5" data-name="Path 5" class="cls-1" d="M74.327,11.516C76.932,9.734,77.252,9,78.486,5.94a3.394,3.394,0,0,1,1.28-2.057c-.091-.411-.64-.594-.96-.731A2.421,2.421,0,0,1,77.8,1.827c-.091-.183-.366-1.874-.046-1.828a3.558,3.558,0,0,1,1.782.777c.686.777.731,1.737,1.417,2.468.091,0,.091.046.137.046a3.528,3.528,0,0,1,.686-.091,5.036,5.036,0,0,1,.823.091,5.993,5.993,0,0,0,1.371-1.462.963.963,0,0,1-.229-.594.96.96,0,1,1,.96.96.58.58,0,0,1-.274-.046c-.366.548-.777,1.234-1.005,1.508a4.613,4.613,0,0,1,.731.594,2.46,2.46,0,0,0,1.371-.823c0-.091-.046-.137-.046-.229a.96.96,0,1,1,.96.96,1.334,1.334,0,0,1-.411-.091,8.654,8.654,0,0,1-1.371.868,2.884,2.884,0,0,1,.366,1.051,2.024,2.024,0,0,0,2.057.868,2.223,2.223,0,0,1,2.285,1.417,2.883,2.883,0,0,1-2.971.686c-.274-.046-1.005-.594-1.234-.594a2.135,2.135,0,0,0-.777.137c-.137.046-.366.411-.5.5a3.582,3.582,0,0,1-.686.457l-.137.137a3.271,3.271,0,0,0-.686,2.148c-.046,2.1.091,4.159.183,6.261.411,8.638.777,17.276,1.143,25.868.091,1.874.274,3.748.411,5.8-1.554.091-3.062.183-4.707.32.411-12.568.868-24.862,1.28-37.157-.046-.5-.594-.731-1.005.411-.5,1.6-.32,2.194-.777,3.519-.5,1.508-.868,3.336-2.788,3.611-3.154.5-5.3-1.143-5.941-4.387a2.461,2.461,0,0,1,.777-2.011,35.52,35.52,0,0,1,3.382-2.468Z" transform="translate(-38.084 0.002)"/>
    </g>
  </g>
</svg>
