<svg xmlns="http://www.w3.org/2000/svg" xmlns:xlink="http://www.w3.org/1999/xlink" width="176" height="181" viewBox="0 0 176 181">
  <defs>
    <style>
      .cls-1 {
        fill: #1d1d1c;
        stroke: #f09006;
        stroke-width: 8px;
      }

      .cls-2, .cls-4 {
        fill: none;
      }

      .cls-3, .cls-5 {
        stroke: none;
      }

      .cls-5 {
        fill: #f2910a;
      }

      .cls-6 {
        filter: url(#Ellipse_19);
      }
    </style>
    <filter id="Ellipse_19" x="0" y="0" width="176" height="181" filterUnits="userSpaceOnUse">
      <feOffset dy="8" input="SourceAlpha"/>
      <feGaussianBlur stdDeviation="1" result="blur"/>
      <feFlood flood-opacity="0.161"/>
      <feComposite operator="in" in2="blur"/>
      <feComposite in="SourceGraphic"/>
    </filter>
  </defs>
  <g id="Group_63" data-name="Group 63" transform="translate(3)">
    <g class="cls-6" transform="matrix(1, 0, 0, 1, -3, 0)">
      <g id="Ellipse_19-2" data-name="Ellipse 19" class="cls-1" transform="translate(3 0)">
        <ellipse class="cls-3" cx="85" cy="85" rx="85" ry="85"/>
        <ellipse class="cls-4" cx="85" cy="85" rx="81" ry="81"/>
      </g>
    </g>
    <g id="TakeAway" transform="translate(48.989 41.468)">
      <g id="Path_87" data-name="Path 87" class="cls-2" transform="translate(-10 -7)">
        <path class="cls-3" d="M82.022,93.475a157.96,157.96,0,0,1-2.65-21.438l-.963-36.131A3.7,3.7,0,0,0,74.8,32.292H63.956V25.066a18.066,18.066,0,1,0-36.131,0v7.226h-10.6a3.7,3.7,0,0,0-3.613,3.613L12.65,72.037c-.241,6.022-1.2,15.657-2.65,21.438l.723-3.372a2.793,2.793,0,0,0,2.89,3.613H78.65A3.006,3.006,0,0,0,81.54,90.1ZM35.292,25.066a10.839,10.839,0,1,1,21.679,0v7.226H35.292Zm7.467,33.241a11.4,11.4,0,0,1-2.409,6.5l-.723.723V82.876a2.891,2.891,0,1,1-5.781,0V65.533l-.964-.723a11.865,11.865,0,0,1-2.409-6.5V44.336a1.646,1.646,0,0,1,1.686-1.686h.723V57.1h2.409V42.65H37.7V57.1h2.409V42.65h.723a1.646,1.646,0,0,1,1.686,1.686V58.307ZM60.825,82.394a3.631,3.631,0,0,1-2.891,3.613,3.452,3.452,0,0,1-2.891-3.613V66.737l-1.686-1.686a10.581,10.581,0,0,1-1.686-6.5S53.6,42.891,58.416,42.891h0c1.2,0,2.409,1.686,2.409,3.613V82.394Z"/>
        <path class="cls-5" d="M 78.64962005615234 93.71537017822266 C 80.26798248291016 93.71537017822266 81.37669372558594 92.52594757080078 81.54763031005859 91.00349426269531 C 80.51664733886719 85.21517181396484 79.58135223388672 77.26415252685547 79.37225341796875 72.03651428222656 L 78.40876007080078 35.90513610839844 C 78.40876007080078 33.97811889648438 76.72261810302734 32.2919921875 74.79561614990234 32.2919921875 L 63.95619964599609 32.2919921875 L 63.95619964599609 25.06571769714355 C 63.95619964599609 14.94891738891602 55.76643371582031 7.000008583068848 45.89050674438477 7.000008583068848 C 36.01459884643555 7.000008583068848 27.8248176574707 15.18979072570801 27.8248176574707 25.06571769714355 L 27.8248176574707 32.2919921875 L 17.22627258300781 32.2919921875 C 15.29927158355713 32.2919921875 13.61314392089844 33.97811889648438 13.61314392089844 35.90513610839844 L 12.64963531494141 72.03651428222656 C 12.45000076293945 77.02745056152344 11.75401496887207 84.50018310546875 10.69875144958496 90.20378875732422 C 10.70620346069336 90.16996002197266 10.71413803100586 90.13621520996094 10.72263526916504 90.10222625732422 L 10.6850700378418 90.27752685546875 C 10.67540550231934 90.3294677734375 10.66566467285156 90.38151550292969 10.65594005584717 90.43315887451172 C 10.38320922851562 92.21814727783203 11.57044315338135 93.71537017822266 13.61314392089844 93.71537017822266 L 78.64962005615234 93.71537017822266 M 58.41605377197266 42.89051818847656 C 59.62043380737305 42.89051818847656 60.82479858398438 44.57666397094727 60.82479858398438 46.503662109375 L 60.82479858398438 82.39418792724609 L 60.8248176574707 82.39418792724609 C 60.8248176574707 84.08033752441406 59.62043380737305 85.7664794921875 57.93430709838867 86.00733947753906 C 56.2481803894043 85.7664794921875 55.04378128051758 84.32118988037109 55.04378128051758 82.39418792724609 L 55.04378128051758 66.73724365234375 L 53.3576545715332 65.05111694335938 C 52.15327072143555 63.364990234375 51.4306526184082 60.47447967529297 51.67152786254883 58.54748153686523 C 51.67152786254883 58.54748153686523 53.59852600097656 42.89051818847656 58.41605377197266 42.89051818847656 M 32.16057968139648 42.64966201782227 L 32.88319778442383 42.64966201782227 L 32.88319778442383 57.10220718383789 L 35.2919807434082 57.10220718383789 L 35.2919807434082 42.64966201782227 L 37.70072555541992 42.64966201782227 L 37.70072555541992 57.10220718383789 L 40.10947036743164 57.10220718383789 L 40.10947036743164 42.64966201782227 L 40.83210754394531 42.64966201782227 C 41.79561614990234 42.64966201782227 42.51825332641602 43.37228012084961 42.51825332641602 44.33578872680664 L 42.51825332641602 58.30661010742188 L 42.75912475585938 58.30661010742188 C 42.75912475585938 60.23358917236328 41.79561614990234 63.12411880493164 40.35036087036133 64.81024169921875 L 39.62774276733398 65.53288269042969 L 39.62774276733398 82.87595367431641 C 39.62774276733398 84.56208038330078 38.18247222900391 85.7664794921875 36.73721694946289 85.7664794921875 C 35.05107116699219 85.7664794921875 33.84670639038086 84.32120513916016 33.84670639038086 82.87595367431641 L 33.84670639038086 65.53288269042969 L 32.88319778442383 64.81024169921875 C 31.67881774902344 63.364990234375 30.47445297241211 60.47447967529297 30.47445297241211 58.30661010742188 L 30.47445297241211 44.33578872680664 C 30.47445297241211 43.37228012084961 31.19707107543945 42.64966201782227 32.16057968139648 42.64966201782227 M 46.13138198852539 14.22628116607666 C 52.15327072143555 14.22628116607666 56.97079849243164 19.04380798339844 56.97079849243164 25.06571769714355 L 56.97079849243164 32.2919921875 L 35.2919807434082 32.2919921875 L 35.2919807434082 25.06571769714355 C 35.2919807434082 19.04380798339844 40.10947036743164 14.22628116607666 46.13138198852539 14.22628116607666 M 82.02188873291016 93.47450256347656 L 81.54012298583984 90.10222625732422 C 81.57870483398438 90.41085052490234 81.58022308349609 90.71316528320312 81.54763031005859 91.00349426269531 C 81.70426940917969 91.88295745849609 81.863037109375 92.71199798583984 82.02188873291016 93.47450256347656 M 9.999999046325684 93.47450256347656 C 10.23129177093506 92.54933929443359 10.4503116607666 91.52512359619141 10.65594005584717 90.43315887451172 C 10.66035652160645 90.40425109863281 10.66513729095459 90.37540435791016 10.67032241821289 90.34635162353516 L 9.999999046325684 93.47450256347656 M 10.67032241821289 90.34635162353516 L 10.6850700378418 90.27752685546875 C 10.68966865539551 90.25281524658203 10.69416618347168 90.22857666015625 10.69875144958496 90.20378875732422 C 10.68825626373291 90.25144195556641 10.6787633895874 90.29905700683594 10.67032241821289 90.34635162353516 M 78.64962005615234 99.71537017822266 L 13.61314392089844 99.71537017822266 C 10.90045356750488 99.71537017822266 8.383071899414062 98.59571838378906 6.70647144317627 96.64350128173828 C 5.659659862518311 95.42459106445312 4.9859299659729 93.93940734863281 4.732132434844971 92.35630035400391 L 4.133180618286133 92.21730041503906 L 4.781875133514404 89.19010925292969 L 4.784744262695312 89.17402648925781 L 4.808273792266846 89.06128692626953 C 5.827763557434082 83.52880859375 6.469909191131592 76.40983581542969 6.654435157775879 71.79671478271484 L 7.61527156829834 35.74518966674805 C 7.613144397735596 30.69426345825195 12.01541709899902 26.29199028015137 17.22627258300781 26.29199028015137 L 21.8248176574707 26.29199028015137 L 21.8248176574707 25.06571769714355 C 21.8248176574707 11.79584503173828 32.62063598632812 1.000008583068848 45.89050674438477 1.000008583068848 C 59.16038131713867 1.000008583068848 69.95619964599609 11.79584503173828 69.95619964599609 25.06571769714355 L 69.95619964599609 26.29199028015137 L 74.79561614990234 26.29199028015137 C 80.00649261474609 26.29199028015137 84.40876007080078 30.69426345825195 84.40876007080078 35.90513610839844 L 85.37012481689453 71.87657165527344 C 85.55237579345703 76.41977691650391 86.36940765380859 83.64339447021484 87.33497619628906 89.26683807373047 L 87.47982025146484 89.25368499755859 L 87.96157836914062 92.62595367431641 L 87.33094024658203 92.73657989501953 C 86.40162658691406 96.83885955810547 82.90170288085938 99.71537017822266 78.64962005615234 99.71537017822266 Z M 41.2919807434082 26.29199028015137 L 50.97079849243164 26.29199028015137 L 50.97079849243164 25.06571769714355 C 50.97079849243164 22.35200881958008 48.84506988525391 20.22628211975098 46.13138198852539 20.22628211975098 C 43.41769027709961 20.22628211975098 41.2919807434082 22.35200881958008 41.2919807434082 25.06571769714355 L 41.2919807434082 26.29199028015137 Z"/>
      </g>
    </g>
  </g>
</svg>
