<svg xmlns="http://www.w3.org/2000/svg" xmlns:xlink="http://www.w3.org/1999/xlink" width="176" height="181" viewBox="0 0 176 181">
  <defs>
    <style>
      .cls-1 {
        fill: #1d1d1c;
        stroke: #f09006;
        stroke-width: 8px;
      }

      .cls-2, .cls-4 {
        fill: none;
      }

      .cls-3, .cls-5 {
        stroke: none;
      }

      .cls-5 {
        fill: #f2910a;
      }

      .cls-6 {
        filter: url(#Ellipse_17);
      }
    </style>
    <filter id="Ellipse_17" x="0" y="0" width="176" height="181" filterUnits="userSpaceOnUse">
      <feOffset dy="8" input="SourceAlpha"/>
      <feGaussianBlur stdDeviation="1" result="blur"/>
      <feFlood flood-opacity="0.161"/>
      <feComposite operator="in" in2="blur"/>
      <feComposite in="SourceGraphic"/>
    </filter>
  </defs>
  <g id="Group_64" data-name="Group 64" transform="translate(3)">
    <g class="cls-6" transform="matrix(1, 0, 0, 1, -3, 0)">
      <g id="Ellipse_17-2" data-name="Ellipse 17" class="cls-1" transform="translate(3 0)">
        <ellipse class="cls-3" cx="85" cy="85" rx="85" ry="85"/>
        <ellipse class="cls-4" cx="85" cy="85" rx="81" ry="81"/>
      </g>
    </g>
    <g id="Reseravation_bttn" transform="translate(42.286 49.381)">
      <g id="Path_44" data-name="Path 44" class="cls-2" transform="translate(0.009 0.003)">
        <path class="cls-3" d="M82.729,8.959c-3.527-2.915-7.7-4.39-12.02-5.578A105.1,105.1,0,0,0,42.927,0,103.631,103.631,0,0,0,15.145,3.381C10.826,4.569,6.652,6.044,3.125,8.959c-3.167,2.627-4.067,6.154-2.087,9.1A14.536,14.536,0,0,0,4.673,21.7c4.211,2.915,9.069,4.247,14,5.362a110.178,110.178,0,0,0,20.873,2.447c.576,0,.792.144.792.792-.036,6.91,0,13.819-.036,20.729a1.109,1.109,0,0,1-.324.72,20.6,20.6,0,0,0-1.8,1.727c-.684,1.008-1.439,1.368-2.447.756a22.1,22.1,0,0,1-2.591-1.8,2.7,2.7,0,0,0-3.779.036,2.539,2.539,0,0,0,.108,3.815A38.452,38.452,0,0,0,33.5,59.089a9.749,9.749,0,0,0,1.871.792,23.015,23.015,0,0,1-1.8,1.475,22.3,22.3,0,0,1-9.933,3.527c-1.871.252-2.879,1.475-2.663,3.095s1.619,2.483,3.455,2.159c.972-.18,1.943-.288,2.879-.54,6.658-1.547,12.236-4.57,15.511-10.9h.216c3.275,6.334,8.889,9.393,15.511,10.9.936.216,1.907.36,2.879.54,1.835.324,3.2-.576,3.455-2.159.252-1.619-.792-2.843-2.663-3.095a22.3,22.3,0,0,1-9.933-3.527c-.648-.432-1.188-1.008-1.8-1.475a12.152,12.152,0,0,0,1.871-.792,40.164,40.164,0,0,0,4.031-2.807,2.539,2.539,0,0,0,.108-3.815,2.737,2.737,0,0,0-3.779-.036,17.6,17.6,0,0,1-2.591,1.8c-1.044.612-1.8.252-2.447-.756a13.616,13.616,0,0,0-1.8-1.727,1.109,1.109,0,0,1-.324-.72c0-6.91,0-13.819-.036-20.729,0-.648.216-.792.792-.792a107,107,0,0,0,20.873-2.447c4.93-1.116,9.789-2.447,14-5.362a13.963,13.963,0,0,0,3.635-3.635C86.832,15.113,85.932,11.586,82.729,8.959Z"/>
        <path class="cls-5" d="M 42.41024017333984 -0.00276947021484375 C 33.22676849365234 -0.0028533935546875 24.0823974609375 0.9435348510742188 15.14486694335938 3.38104248046875 C 10.82637786865234 4.568626403808594 6.651847839355469 6.044097900390625 3.125083923339844 8.959079742431641 C -0.04178619384765625 11.58615112304688 -0.9414825439453125 15.1129150390625 1.037826538085938 18.06387710571289 C 1.973487854003906 19.46738815307617 3.305030822753906 20.72695159912109 4.672538757324219 21.69860458374023 C 8.883064270019531 24.61358642578125 13.74135589599609 25.94511413574219 18.671630859375 27.06071472167969 C 25.54521179199219 28.60818862915039 32.52677536010742 29.29193496704102 39.54430389404297 29.50786209106445 C 40.12010192871094 29.50786209106445 40.33602905273438 29.65182495117188 40.33602905273438 30.29958724975586 C 40.30002975463867 37.20915222167969 40.33602905273438 44.11873245239258 40.30002975463867 51.02829742431641 C 40.30002975463867 51.28020477294922 40.15608596801758 51.56809616088867 39.97615814208984 51.74804306030273 C 39.40035629272461 52.35982513427734 38.64461135864258 52.82765960693359 38.17677688598633 53.47544097900391 C 37.72096252441406 54.14715957641602 37.23306274414062 54.53107070922852 36.65998077392578 54.53107070922852 C 36.37338638305664 54.53107070922852 36.06556701660156 54.43512725830078 35.72964859008789 54.23117065429688 C 34.8299560546875 53.69136810302734 33.93026733398438 53.07958984375 33.13855743408203 52.43180847167969 C 32.53214263916016 51.93240737915039 31.84615325927734 51.68050384521484 31.18577575683594 51.68050384521484 C 30.51368713378906 51.68050384521484 29.86812973022461 51.94139099121094 29.35988616943359 52.46780395507812 C 28.28026580810547 53.54742431640625 28.24426651000977 55.23882293701172 29.46784973144531 56.2824592590332 C 30.72739410400391 57.32609558105469 32.13090133666992 58.22576904296875 33.49842834472656 59.0894775390625 C 34.03823089599609 59.4493522644043 34.72199249267578 59.62928009033203 35.36975860595703 59.88120651245117 C 34.75797653198242 60.38502502441406 34.21817398071289 60.92482376098633 33.57039260864258 61.3566780090332 C 30.58344650268555 63.40795135498047 27.20063018798828 64.41560363769531 23.63788604736328 64.88344573974609 C 21.76654052734375 65.13535308837891 20.75890350341797 66.35893249511719 20.97483062744141 67.97837066650391 C 21.1605224609375 69.37114715576172 22.22480010986328 70.20497894287109 23.68660354614258 70.20497894287109 C 23.92448043823242 70.20497894287109 24.17274475097656 70.18291473388672 24.42961120605469 70.13758850097656 C 25.40126800537109 69.95765686035156 26.37292098999023 69.84969329833984 27.30859375 69.59778594970703 C 33.96624755859375 68.05033111572266 39.54430389404297 65.02738952636719 42.81915664672852 58.69360733032227 C 42.81915664672852 58.69360733032227 42.89112091064453 58.69360733032227 42.92712020874023 58.69360733032227 C 42.99908447265625 58.69360733032227 43.03508377075195 58.69360733032227 43.03508377075195 58.69360733032227 C 46.30992126464844 65.02738952636719 51.9239387512207 68.08633422851562 58.54561233520508 69.59778594970703 C 59.48128509521484 69.81373596191406 60.45295715332031 69.95765686035156 61.42461395263672 70.13758850097656 C 61.67498016357422 70.18177032470703 61.91688537597656 70.20320129394531 62.14820098876953 70.20320129394531 C 63.61255645751953 70.20320129394531 64.66184997558594 69.34578704833984 64.87939453125 67.97837066650391 C 65.13131713867188 66.35893249511719 64.08768463134766 65.13535308837891 62.21633911132812 64.88344573974609 C 58.65359497070312 64.41560363769531 55.27077484130859 63.40795135498047 52.28382873535156 61.3566780090332 C 51.63604736328125 60.92484283447266 51.09622955322266 60.34902191162109 50.48444747924805 59.88120651245117 C 51.09622955322266 59.62928009033203 51.78001022338867 59.4493522644043 52.35579299926758 59.0894775390625 C 53.72332000732422 58.18978881835938 55.16281127929688 57.32609558105469 56.38637542724609 56.2824592590332 C 57.60993957519531 55.23882293701172 57.57395935058594 53.54742431640625 56.49433898925781 52.46780395507812 C 55.97251892089844 51.94598770141602 55.32473754882812 51.69407272338867 54.65897369384766 51.69407272338867 C 53.99320983886719 51.69407272338867 53.30945587158203 51.94597625732422 52.71566772460938 52.43180847167969 C 51.88795852661133 53.11557006835938 51.02426528930664 53.72735214233398 50.12457656860352 54.23117065429688 C 49.77671813964844 54.43508911132812 49.46079254150391 54.53107070922852 49.17024230957031 54.53107070922852 C 48.58909225463867 54.53107070922852 48.10930252075195 54.14722061157227 47.67744827270508 53.47544097900391 C 47.2095947265625 52.79169464111328 46.45386505126953 52.32384490966797 45.87806701660156 51.74804306030273 C 45.69813919067383 51.56809616088867 45.55419540405273 51.28020477294922 45.55419540405273 51.02829742431641 C 45.55419540405273 44.11873245239258 45.55419540405273 37.20915222167969 45.51821136474609 30.29958724975586 C 45.51821136474609 29.65180587768555 45.7341194152832 29.50786209106445 46.30992126464844 29.50786209106445 C 53.32746505737305 29.29193496704102 60.34499359130859 28.64416885375977 67.18257141113281 27.06071472167969 C 72.11286926269531 25.94511413574219 76.97116088867188 24.61358642578125 81.18166351318359 21.69860458374023 C 82.58517456054688 20.72695159912109 83.8807373046875 19.46738815307617 84.81639099121094 18.06387710571289 C 86.83168792724609 15.1129150390625 85.93201446533203 11.58615112304688 82.72911834716797 8.959079742431641 C 79.20235443115234 6.044097900390625 75.02783203125 4.568626403808594 70.70935821533203 3.38104248046875 C 61.60455703735352 0.897918701171875 52.28382873535156 -0.00177764892578125 42.92712020874023 -0.00177764892578125 C 42.75522232055664 -0.00243377685546875 42.58211135864258 -0.00276947021484375 42.41024017333984 -0.00276947021484375 M 42.40917587280273 -6.002777099609375 L 42.42059326171875 -6.002777099609375 L 42.94997406005859 -6.001739501953125 C 53.81599426269531 -6.001777648925781 63.42004776000977 -4.826087951660156 72.28806304931641 -2.407539367675781 C 76.81966400146484 -1.161354064941406 82.04705047607422 0.6111297607421875 86.55162811279297 4.334312438964844 C 92.17012023925781 8.942661285400391 93.50122833251953 15.98582458496094 89.77119445800781 21.4476432800293 C 88.48725128173828 23.3742790222168 86.68502807617188 25.18615341186523 84.596923828125 26.63177108764648 C 79.36944580078125 30.25078964233398 73.55055999755859 31.77148056030273 68.50673675537109 32.91276931762695 C 63.33956909179688 34.10945892333984 57.85149002075195 34.87676620483398 51.53841400146484 35.27245712280273 C 51.54942321777344 38.93238067626953 51.55274963378906 42.59809112548828 51.55375671386719 46.26670074462891 C 52.5533447265625 45.89030456542969 53.60432815551758 45.69407653808594 54.65897369384766 45.69407653808594 C 56.94625091552734 45.69407653808594 59.10477447509766 46.59297180175781 60.73697662353516 48.22517013549805 C 62.45890045166016 49.94707870483398 63.3922119140625 52.30397033691406 63.29763031005859 54.69147872924805 C 63.23911285400391 56.16835403442383 62.80774688720703 57.56725692749023 62.0501708984375 58.79308319091797 C 62.35836791992188 58.84507369995117 62.67369079589844 58.89199066162109 62.99752044677734 58.93451690673828 C 65.60481262207031 59.28546142578125 67.81980895996094 60.53506088256836 69.25377655029297 62.45568084716797 C 70.61831665039062 64.28331756591797 71.17031860351562 66.57218933105469 70.80808258056641 68.90065765380859 C 70.12275695800781 73.20867919921875 66.56299591064453 76.20320892333984 62.148193359375 76.20320892333984 L 61.62284851074219 76.20320892333984 L 60.38190460205078 76.04629516601562 C 58.70895767211914 75.75247955322266 57.94309997558594 75.61646270751953 57.19633865356445 75.44411468505859 C 51.27796936035156 74.09320068359375 46.54832077026367 71.76094055175781 42.91935729980469 68.38262939453125 C 39.30097961425781 71.73618316650391 34.58061218261719 74.06748199462891 28.66697692871094 75.44200897216797 C 28.0379753112793 75.61505889892578 27.18806457519531 75.76291656494141 26.32904815673828 75.90133666992188 C 24.85501098632812 76.15522766113281 24.25819396972656 76.20497131347656 23.68661117553711 76.20497131347656 C 19.17176055908203 76.20497131347656 15.61099243164062 73.14813232421875 15.02745056152344 68.77129364013672 C 14.37161254882812 63.85253143310547 17.72915649414062 59.62471389770508 22.83742904663086 58.93708038330078 C 23.17065048217773 58.89331817626953 23.49478530883789 58.84498596191406 23.81064987182617 58.79187774658203 C 23.0432243347168 57.55661010742188 22.61488342285156 56.16269683837891 22.55659484863281 54.69151306152344 C 22.46199417114258 52.30398559570312 23.39532089233398 49.94709777832031 25.11724853515625 48.22517013549805 C 26.67453765869141 46.61089706420898 28.85592269897461 45.68049621582031 31.18577575683594 45.68049621582031 C 32.24673080444336 45.68049621582031 33.30479049682617 45.88037109375 34.30830764770508 46.2611198425293 L 34.31803131103516 40.66393280029297 L 34.32741928100586 35.26244735717773 C 28.12261962890625 34.86104583740234 22.5613899230957 34.08660507202148 17.35381317138672 32.91420745849609 C 12.30366516113281 31.77148056030273 6.484771728515625 30.25078964233398 1.257286071777344 26.63175201416016 C -0.2647323608398438 25.55088043212891 -2.345298767089844 23.8058967590332 -3.954498291015625 21.39204406738281 C -7.593246459960938 15.967041015625 -6.261154174804688 8.949695587158203 -0.7056961059570312 4.341171264648438 C 3.807174682617188 0.6111297607421875 9.034553527832031 -1.161354064941406 13.55393981933594 -2.404197692871094 C 22.43664932250977 -4.826759338378906 31.87126541137695 -6.002777099609375 42.40917587280273 -6.002777099609375 Z"/>
      </g>
    </g>
  </g>
</svg>
