<svg xmlns="http://www.w3.org/2000/svg" xmlns:xlink="http://www.w3.org/1999/xlink" width="176" height="181" viewBox="0 0 176 181">
  <defs>
    <style>
      .cls-1 {
        fill: #1d1d1c;
        stroke: #f09006;
        stroke-width: 8px;
      }

      .cls-2, .cls-4 {
        fill: none;
      }

      .cls-2 {
        fill-rule: evenodd;
      }

      .cls-3, .cls-5 {
        stroke: none;
      }

      .cls-5 {
        fill: #f2910a;
      }

      .cls-6 {
        filter: url(#Ellipse_20);
      }
    </style>
    <filter id="Ellipse_20" x="0" y="0" width="176" height="181" filterUnits="userSpaceOnUse">
      <feOffset dy="8" input="SourceAlpha"/>
      <feGaussianBlur stdDeviation="1" result="blur"/>
      <feFlood flood-opacity="0.161"/>
      <feComposite operator="in" in2="blur"/>
      <feComposite in="SourceGraphic"/>
    </filter>
  </defs>
  <g id="Group_65" data-name="Group 65" transform="translate(3)">
    <g class="cls-6" transform="matrix(1, 0, 0, 1, -3, 0)">
      <g id="Ellipse_20-2" data-name="Ellipse 20" class="cls-1" transform="translate(3 0)">
        <ellipse class="cls-3" cx="85" cy="85" rx="85" ry="85"/>
        <ellipse class="cls-4" cx="85" cy="85" rx="81" ry="81"/>
      </g>
    </g>
    <g id="Taxi" transform="translate(39.023 42.366)">
      <g id="Icons" transform="translate(0 0)">
        <g id="Taxi-2" data-name="Taxi" class="cls-2" transform="translate(-460 -2237)">
          <path class="cls-3" d="M517.661,2244.69h7.651c6.389,0,13.053,4.945,14.874,11.014l2.461,8.206h7.706a1.894,1.894,0,0,1,1.9,1.939v3.808a1.907,1.907,0,0,1-1.9,1.939h-5.4l.155.518a11.046,11.046,0,0,1,.424,2.132,15.4,15.4,0,0,1,6.724,12.766v30.732a3.832,3.832,0,0,1-3.88,3.826h-7.616a3.878,3.878,0,0,1-3.88-3.826v-3.863h9.605a5.75,5.75,0,0,0,5.771-5.756v-3.844a5.75,5.75,0,0,1-5.771,5.754H465.771a5.765,5.765,0,0,1-5.771-5.754v3.844a5.766,5.766,0,0,0,5.771,5.756h9.6v3.863a3.833,3.833,0,0,1-3.88,3.826H463.88a3.878,3.878,0,0,1-3.88-3.826v-30.732a15.411,15.411,0,0,1,6.725-12.758,10.992,10.992,0,0,1,.423-2.139l.155-.518h-5.4a1.893,1.893,0,0,1-1.9-1.939v-3.808a1.907,1.907,0,0,1,1.9-1.939h7.706l2.462-8.206c1.825-6.082,8.443-11.014,14.874-11.014H494.6V2238.9a1.916,1.916,0,0,1,1.888-1.9h19.289a1.882,1.882,0,0,1,1.888,1.9v5.785Zm-46.128,46.122a3.839,3.839,0,0,1,3.88-3.838h7.615a3.848,3.848,0,0,1,3.88,3.838v3.853a3.841,3.841,0,0,1-3.88,3.842h-7.615a3.85,3.85,0,0,1-3.88-3.842v-3.853Zm53.816,0a3.839,3.839,0,0,1,3.88-3.838h7.616a3.848,3.848,0,0,1,3.88,3.838v3.853a3.841,3.841,0,0,1-3.88,3.842h-7.616a3.85,3.85,0,0,1-3.88-3.842v-3.853Zm-45.6-32.852a7.711,7.711,0,0,1,7.128-5.581h38.508a7.7,7.7,0,0,1,7.129,5.581l4.37,17.48h-61.5l4.371-17.48Z"/>
          <path class="cls-5" d="M 496.48388671875 2237 C 495.4725341796875 2237 494.5962524414062 2237.85205078125 494.5962524414062 2238.904296875 L 494.5962524414062 2244.689697265625 L 486.9451904296875 2244.689697265625 C 480.51416015625 2244.689697265625 473.8966064453125 2249.621337890625 472.0716552734375 2255.703369140625 L 469.610107421875 2263.909423828125 L 461.904296875 2263.909423828125 C 460.8292846679688 2263.909423828125 460.000244140625 2264.77685546875 460.000244140625 2265.848876953125 L 460.000244140625 2269.6572265625 C 460.000244140625 2270.7744140625 460.8525390625 2271.5966796875 461.904296875 2271.5966796875 L 467.3038330078125 2271.5966796875 L 467.1487426757812 2272.114501953125 C 466.9295043945312 2272.845458984375 466.7899780273438 2273.5615234375 466.7257080078125 2274.25390625 C 462.66455078125 2277.02490234375 460.000244140625 2281.705322265625 460.000244140625 2287.01220703125 L 460.000244140625 2297.548828125 L 460.000244140625 2317.743896484375 C 460.000244140625 2319.819091796875 461.7369384765625 2321.5703125 463.880126953125 2321.5703125 L 471.4959716796875 2321.5703125 C 473.671875 2321.5703125 475.3760986328125 2319.857421875 475.3760986328125 2317.743896484375 L 475.3760986328125 2313.88134765625 L 465.7711791992188 2313.88134765625 C 462.583740234375 2313.88134765625 460.000244140625 2311.29931640625 460.000244140625 2308.125732421875 L 460.000244140625 2297.568603515625 L 460.000244140625 2304.2822265625 C 460.000244140625 2307.455810546875 462.583740234375 2310.0361328125 465.7711791992188 2310.0361328125 L 546.4861450195312 2310.0361328125 C 549.6934204101562 2310.0361328125 552.2568969726562 2307.4599609375 552.2568969726562 2304.2822265625 L 552.2568969726562 2297.568603515625 L 552.2568969726562 2308.125732421875 C 552.2568969726562 2311.304443359375 549.6934204101562 2313.88134765625 546.4861450195312 2313.88134765625 L 536.8807373046875 2313.88134765625 L 536.8807373046875 2317.743896484375 C 536.8807373046875 2319.819091796875 538.617919921875 2321.5703125 540.7611083984375 2321.5703125 L 548.3773803710938 2321.5703125 C 550.5526123046875 2321.5703125 552.2568969726562 2319.857421875 552.2568969726562 2317.743896484375 L 552.2568969726562 2297.548828125 L 552.2568969726562 2287.01220703125 C 552.2568969726562 2281.688232421875 549.591064453125 2277.015380859375 545.532470703125 2274.246337890625 C 545.4669189453125 2273.557373046875 545.3275756835938 2272.8427734375 545.1085815429688 2272.114501953125 L 544.9532470703125 2271.5966796875 L 550.3526000976562 2271.5966796875 C 551.4277954101562 2271.5966796875 552.2568969726562 2270.729248046875 552.2568969726562 2269.6572265625 L 552.2568969726562 2265.848876953125 C 552.2568969726562 2264.7333984375 551.4047241210938 2263.909423828125 550.3526000976562 2263.909423828125 L 542.6470336914062 2263.909423828125 L 540.1856689453125 2255.703369140625 C 538.3649291992188 2249.635009765625 531.7014770507812 2244.689697265625 525.3121337890625 2244.689697265625 L 517.66064453125 2244.689697265625 L 517.66064453125 2238.904296875 C 517.66064453125 2237.829833984375 516.8155517578125 2237 515.7730102539062 2237 L 496.48388671875 2237 M 536.8807373046875 2275.440185546875 L 475.3760986328125 2275.440185546875 L 479.7466430664062 2257.9599609375 C 480.517333984375 2254.876953125 483.689208984375 2252.378662109375 486.8746337890625 2252.378662109375 L 525.3822631835938 2252.378662109375 C 528.5480346679688 2252.378662109375 531.7316284179688 2254.844482421875 532.5108642578125 2257.9599609375 L 536.8807373046875 2275.440185546875 M 483.028076171875 2298.507080078125 L 475.4126586914062 2298.507080078125 C 473.26953125 2298.507080078125 471.5323486328125 2296.804443359375 471.5323486328125 2294.6650390625 L 471.5323486328125 2290.81201171875 C 471.5323486328125 2288.693359375 473.236572265625 2286.9736328125 475.4126586914062 2286.9736328125 L 483.028076171875 2286.9736328125 C 485.1712646484375 2286.9736328125 486.908447265625 2288.673583984375 486.908447265625 2290.81201171875 L 486.908447265625 2294.6650390625 C 486.908447265625 2296.78564453125 485.2041015625 2298.507080078125 483.028076171875 2298.507080078125 M 536.8450927734375 2298.507080078125 L 529.2286376953125 2298.507080078125 C 527.0863037109375 2298.507080078125 525.3486938476562 2296.804443359375 525.3486938476562 2294.6650390625 L 525.3486938476562 2290.81201171875 C 525.3486938476562 2288.693359375 527.052978515625 2286.9736328125 529.2286376953125 2286.9736328125 L 536.8450927734375 2286.9736328125 C 538.9873657226562 2286.9736328125 540.7249755859375 2288.673583984375 540.7249755859375 2290.81201171875 L 540.7249755859375 2294.6650390625 C 540.7249755859375 2296.78564453125 539.020751953125 2298.507080078125 536.8450927734375 2298.507080078125 M 496.48388671875 2231 L 515.7730102539062 2231 C 520.0505981445312 2231 523.5438232421875 2234.43017578125 523.6577758789062 2238.689697265625 L 525.3121337890625 2238.689697265625 C 534.3026123046875 2238.689697265625 543.3602294921875 2245.405517578125 545.9325561523438 2253.97900390625 L 547.1114501953125 2257.909423828125 L 550.3526000976562 2257.909423828125 C 554.7110595703125 2257.909423828125 558.2568969726562 2261.470947265625 558.2568969726562 2265.848876953125 L 558.2568969726562 2269.6572265625 C 558.2568969726562 2272.20703125 557.0536499023438 2274.48046875 555.1878662109375 2275.933837890625 C 557.16796875 2279.22705078125 558.2568969726562 2283.044677734375 558.2568969726562 2287.01220703125 L 558.2568969726562 2297.548828125 L 558.2568969726562 2317.743896484375 C 558.2568969726562 2323.162109375 553.824951171875 2327.5703125 548.3773803710938 2327.5703125 L 540.7611083984375 2327.5703125 C 535.3130493164062 2327.5703125 530.8807373046875 2323.162109375 530.8807373046875 2317.743896484375 L 530.8807373046875 2316.0361328125 L 481.3760986328125 2316.0361328125 L 481.3760986328125 2317.743896484375 C 481.3760986328125 2323.162109375 476.9439086914062 2327.5703125 471.4959716796875 2327.5703125 L 463.880126953125 2327.5703125 C 458.4323120117188 2327.5703125 454.000244140625 2323.162109375 454.000244140625 2317.743896484375 L 454.000244140625 2297.548828125 L 454.000244140625 2287.01220703125 C 454.000244140625 2283.046142578125 455.0902099609375 2279.22900390625 457.0721435546875 2275.936279296875 C 455.2044067382812 2274.482666015625 454.000244140625 2272.208740234375 454.000244140625 2269.6572265625 L 454.000244140625 2265.848876953125 C 454.000244140625 2261.470947265625 457.5459594726562 2257.909423828125 461.904296875 2257.909423828125 L 465.1458129882812 2257.909423828125 L 466.3246459960938 2253.9794921875 C 468.8972778320312 2245.405517578125 477.954833984375 2238.689697265625 486.9451904296875 2238.689697265625 L 488.59912109375 2238.689697265625 C 488.7130737304688 2234.43017578125 492.206298828125 2231 496.48388671875 2231 Z M 529.1961669921875 2269.440185546875 L 526.6900024414062 2259.4150390625 C 526.57568359375 2258.9580078125 525.7806396484375 2258.378662109375 525.3822631835938 2258.378662109375 L 486.8746337890625 2258.378662109375 C 486.4534912109375 2258.378662109375 485.671630859375 2258.99853515625 485.5675048828125 2259.4150390625 L 483.0609741210938 2269.440185546875 L 529.1961669921875 2269.440185546875 Z"/>
        </g>
      </g>
    </g>
  </g>
</svg>
